<?xml version="1.0" encoding="utf-8"?>
<!-- Generator: Adobe Illustrator 24.0.1, SVG Export Plug-In . SVG Version: 6.00 Build 0)  -->
<svg version="1.1" id="Layer_1" xmlns="http://www.w3.org/2000/svg" xmlns:xlink="http://www.w3.org/1999/xlink" x="0px" y="0px"
	 viewBox="0 0 115 125" style="enable-background:new 0 0 115 125;" xml:space="preserve">
<style type="text/css">
	.st0{fill:#164DFF;}
</style>
<path class="st0" d="M53.2,73.9c0.8,0.5,1.5,0.6,2.5,0.6c0.8,0,1.8-0.2,2.5-0.6l52.5-30.3v-8c0-3-1.5-5.7-4-7.1l-47-27
	c-1.2-0.7-2.6-1.1-4-1.1c-1.4,0-2.7,0.4-4,1.1l-47,27c-2.5,1.4-4,4.1-4,7.1v54.2c0,2.8,1.5,5.6,4,7l47,27.1c1.3,0.7,2.6,1.1,4,1.1
	c1.4,0,2.8-0.4,4-1.1l47-27.1c2.5-1.4,4-4.1,4-7v-8L58.2,112c-0.6,0.3-1.5,0.6-2.5,0.6c-0.8,0-1.7-0.1-2.5-0.6l-25-14.5V84.9
	l25,14.4c0.8,0.5,1.7,0.7,2.5,0.7c1,0,1.8-0.2,2.5-0.7l52.5-30.3V56.2L58.2,86.6c-0.7,0.3-1.7,0.6-2.5,0.6c-0.9,0-1.7-0.1-2.5-0.6
	l-25-14.5V59.4L53.2,73.9z"/>
</svg>
