<?xml version="1.0" encoding="utf-8"?>
<!-- Generator: Adobe Illustrator 24.0.1, SVG Export Plug-In . SVG Version: 6.00 Build 0)  -->
<svg version="1.1" id="Layer_1" xmlns="http://www.w3.org/2000/svg" xmlns:xlink="http://www.w3.org/1999/xlink" x="0px" y="0px"
	 viewBox="0 0 256 256" style="enable-background:new 0 0 256 256;" xml:space="preserve">
<style type="text/css">
	.st0{fill:#6CBE4C;}
	.st1{fill:#474747;}
	.st2{fill:#606060;}
	.st3{fill:#080808;}
	.st4{fill:#060606;}
</style>
<rect x="4" y="4" class="st0" width="248" height="248"/>
<g>
	<path d="M238,144.5c-6.8,1-13.6,0.4-20.4,0.6c-6.5,0.2-13-0.1-19.5,0.1c-2.2,0.1-2.8-0.6-2.7-2.6c0.2-5.5,0.1-11-1.7-16.4
		c-0.4-1.3-1-2.5-1.8-4.4c5,0,9.7,0,14.4,0c9.3-0.1,18.7-0.1,28-0.2c1.3,0,2.5,0,3.6,0.6c0,0.5,0,0.9,0,1.4c-0.8,2.5-2,4.7-3.6,6.8
		c-1.7,2.4-1.6,4.5,0.2,6.7c1.5,1.8,2.5,4,3.4,6.1C238,143.6,238,144,238,144.5z"/>
	<path class="st0" d="M238,143.1c-1.9-2.8-3.9-5.7-5.8-8.5c-0.5-0.8-0.5-1.5,0-2.2c2.1-2.9,3.2-6.4,5.8-9
		C238,130,238,136.6,238,143.1z"/>
	<path class="st1" d="M182.5,156.7c0.1-0.2,0.1-0.4-0.1-0.6c1.7-1.4,3.5-1.2,5.3-0.4c0.4,0.3,0.5,0.6,0.3,1.1
		C186.1,156.7,184.3,156.7,182.5,156.7z"/>
	<path class="st2" d="M188,156.7c0-0.2,0-0.4,0-0.6c1.8-1.5,3.7-1.5,5.5,0c-0.1,0.2-0.1,0.4-0.1,0.6
		C191.6,156.7,189.8,156.7,188,156.7z"/>
	<path d="M48,124.7c0.7,0,1.4,0,2.1,0c5-0.1,4.8-0.1,3.7,4.4c-0.7,2.8-0.5,5.8-0.4,8.8c0.1,3.5-1.5,5.4-4.7,6.5
		c-8.1,2.9-16.1,4-23.9-1.1c-8.1-5.4-10.9-15.6-7.1-26.3c3-8.3,12.3-14,21.4-13.1c3.5,0.3,6.9,1.2,10,3c2.9,1.7,4.5,4.2,4.9,7.3
		c0.3,2.2-0.5,4.1-2.8,4.8c-2.3,0.7-4.3,0.3-5.6-1.9c-0.6-1.1-1-2.3-1.6-3.3c-1.8-3.2-4.6-4.6-8.1-4.7c-3.6-0.1-6,1.5-7.7,4.6
		c-3.7,7.1-2.2,17.6,3.5,22.9c0.7,0.7,1.6,1.3,2.5,1.7c2.8,1.1,5.6,2.2,8.4,0.2c1.2-0.9,1.2-7.9,0.1-9.7c-0.7-1.1-2.1-2.2-1.3-3.6
		c0.7-1.1,2.3-0.3,3.5-0.4C45.9,124.7,46.9,124.8,48,124.7C48,124.7,48,124.7,48,124.7z"/>
	<path d="M136.9,133.5c-1.6,3.4-1.9,6.8-2.8,10c-0.7,2.5-2,3.4-4.6,3.4c-6.8-0.2-6.9-0.1-9-6.3c-1.9-5.6-3.7-11.3-5.6-17
		c-0.2-0.5-0.3-1.1-0.5-1.6c-2-4.5-2-4.5,3-4.3c2.6,0.1,5.4-1,7.8,0.3c2.9,1.5,0.6,4.7,1.4,7c1.5,4.1,2.4,8.4,3.6,12.6
		c0,0.1,0.2,0.1,0.5,0.4c1.4-5.5,2.9-10.8,4.3-16.1c0.6-2.3,1.1-4,4.3-4.1c3.3,0,4.7,1.1,5.3,4.2c1.1,5.3,2.5,10.5,4,15.8
		c1.4-6.2,5.1-11.8,3.9-18.5c-0.2-1,0-1.5,1-1.5c1-0.1,2-0.2,3.1-0.2c4.3-0.1,4.2,0.1,2.5,3.9c-3,6.7-4.7,13.8-6.6,20.9
		c-0.9,3.4-2.5,4.6-5.9,4.5c-6.4-0.2-6.5-0.1-8-6.1C138.1,138.5,137.6,136.2,136.9,133.5z"/>
	<path d="M193.5,156.1c-1.8,0-3.7,0-5.5,0c-1.9,0-3.7,0-5.6-0.1c-1.5-1.1,0-2.2,0-3.3c-0.1-8,0.5-16-0.6-24
		c-0.2-1.2-0.6-2.4-0.9-3.6c-0.6-1.8-1.7-3-3.7-2.8c-2.1,0.1-3.5,1.4-3.6,3.4c-0.3,6.1-1.3,12.1-0.1,18.2c0.5,2.3,0.1,3.1-2.4,2.8
		c-2.3-0.2-4.6,0-6.8,0.1c-2.1,0.1-2.7-0.8-2.4-2.8c1.1-7,1.1-14.1,0.5-21.2c-0.1-0.8,0-1.3,0.7-1.7c2.2-1.1,4.4-2.4,6.8-3.1
		c3.3-0.9,1.5,2.4,2.6,3.6c1.5-0.9,2.8-2.2,4.5-2.8c4.8-1.5,9.7,0.2,12.5,4.5c2.2,3.4,3,7.3,3.2,11.2c0.4,6.7-0.6,13.5,1.5,20.1
		C194.4,155.3,194.2,155.8,193.5,156.1z"/>
	<path d="M94.9,146.7c-4.3-0.2-9.5-2.6-12.4-8.3c-2.5-4.9-1.9-9.9,1.5-14.3c4.1-5.4,9.8-7.3,16.3-6.4c8.4,1.2,13.9,7.6,13.3,14.9
		C112.9,140.9,106.4,146.5,94.9,146.7z"/>
	<path d="M67.4,122.5c2.3-3.8,5.3-5.4,9.1-5.1c3.8,0.4,6.1,5.2,4.1,8.3c-1.3,2-4.2,2.3-5.8,0.4c-0.6-0.7-1-1.5-1.6-2.2
		c-1.8-1.8-4.2-1.3-4.5,1.3c-0.8,6.1-1.4,12.3-0.1,18.5c0.5,2.3,0.4,3.4-2.4,3.2c-2.5-0.2-5-0.2-7.5-0.1c-1.6,0-1.9-0.7-1.7-2.1
		c1.2-7.5,1.2-15,0.7-22.5c-0.1-1.2,0.6-1.6,1.4-2c1.2-0.5,2.3-0.9,3.5-1.4C67.2,116.8,67.2,116.8,67.4,122.5z"/>
	<path class="st0" d="M201.2,133.6c0-0.6,0-1.1,0-1.7c0.2-2-0.9-5.2,0.9-5.9c3-1,6.5-0.8,9.5,1c1.4,0.8,2.2,2.5,1.5,3.8
		c-1,1.8-0.9,3,0.2,4.7c1.4,2.1-0.3,4.8-3.1,5.6c-2.4,0.7-5,0.3-7.5,0.5c-1.6,0.1-1.6-1-1.6-2C201.2,137.7,201.2,135.6,201.2,133.6z
		"/>
	<path class="st0" d="M230.5,126.3c-1.4,2.3-2.6,4.6-4,6.8c-1.1,1.8-1.8,3.6-1.5,5.7c0.3,1.9-0.2,2.9-2.5,2.9
		c-2.3,0-2.5-1.1-2.2-2.7c0.6-3.8-1.9-6.3-3.5-9.2c-0.6-1.2-1.3-2.3-2-3.5c4.4-1.1,4.4-1.1,7.9,4.8
		C224.4,128.1,225.4,124,230.5,126.3z"/>
	<path class="st0" d="M102.2,133.9c0.1,2.1-0.2,4.8-1.5,7.2c-1.5,2.9-4.9,3.1-6.4,0.2c-3-6.1-3.1-12.4-0.7-18.7
		c1.1-2.9,4.8-2.8,6.4,0.1C102,126,102.3,129.6,102.2,133.9z"/>
	<path class="st3" d="M206.9,138.5c-1.3,0.2-1.8-0.4-1.8-1.7c0-1.2,0.6-1.6,1.6-1.5c1,0.2,2.5-0.2,2.5,1.5
		C209.3,138.5,207.9,138.3,206.9,138.5z"/>
	<path class="st4" d="M207.2,128.8c1.2,0,2.2,0.4,2,1.7c-0.3,1.5-1.7,1.2-2.8,1.2c-1.4,0.1-1.2-0.9-1.3-1.8
		C205,128.2,206.4,129,207.2,128.8z"/>
</g>
</svg>
