<?xml version="1.0" encoding="utf-8"?>
<!-- Generator: Adobe Illustrator 24.0.1, SVG Export Plug-In . SVG Version: 6.00 Build 0)  -->
<svg version="1.1" id="Layer_1" xmlns="http://www.w3.org/2000/svg" xmlns:xlink="http://www.w3.org/1999/xlink" x="0px" y="0px"
	 viewBox="0 0 136 22" style="enable-background:new 0 0 136 22;" xml:space="preserve">
<style type="text/css">
	.st0{fill:#FFFFFF;}
	.st1{fill:#FEFEFE;}
	.st2{fill:#B7593E;}
	.st3{fill:#511E17;}
	.st4{fill:#FBE0BD;}
	.st5{fill:#FEEED1;}
	.st6{fill:#796C77;}
</style>
<g>
	<path class="st0" d="M19.1,21.8H4.9c-2,0-3.6-1.6-3.6-3.6V4c0-2,1.6-3.6,3.6-3.6h14.3c2,0,3.6,1.6,3.6,3.6v14.3
		C22.7,20.2,21.1,21.8,19.1,21.8z"/>
	<g>
		<path class="st1" d="M20.3,16.5c0,0.9,0,1.8,0,2.8c0,0.1,0,0.1-0.1,0.1c-5.5,0-10.9,0-16.4,0c-0.1,0-0.1,0-0.1-0.1
			c0-2.9,0-5.9,0-8.8c0.1,0,0.1,0.1,0.1,0.1c0.1,0.6,0.4,1.1,0.4,1.7c0,0.3,0.1,0.6,0.2,1c0,0.2,0.1,0.3,0.4,0.3c0.3,0,0.6,0,0.9,0
			c0.2,0,0.3-0.1,0.3-0.2C6,13.2,6.2,13,6.3,12.9c0.1-0.1,0.2-0.3,0.3-0.4c0.1-0.1,0.1-0.2,0.2-0.2c0.1,0,0.1,0.1,0.1,0.2
			C6.9,12.8,7,13,7.2,13.1c0.1,0.1,0.2,0.2,0.4,0.1c0,0,0.1-0.1,0.1-0.1c0.1,0,0.2,0,0.3,0.1c0.2,0.4,0.5,0.7,0.9,0.9
			c0,0,0.1,0.1,0.1,0.1c0,0.2,0,0.3,0,0.4c0,0.4-0.1,0.7-0.1,1.1c0,0.2-0.1,0.3-0.2,0.5c-0.1,0.1-0.2,0.2-0.1,0.3
			c0.1,0.1,0.2,0.1,0.3,0.1c0.2,0,0.3,0,0.5,0c0.2,0,0.3-0.1,0.4-0.3c0.1-0.4,0.2-0.7,0.3-1.1c0,0,0-0.1,0-0.1c0-0.1,0.1-0.1,0.1,0
			c0.1,0.2,0.3,0.5,0.4,0.8c0,0.1,0,0.1,0,0.2c0,0.1-0.1,0.2-0.1,0.3c0,0.1,0,0.2,0.2,0.2c0.2,0,0.5,0,0.7,0c0.2,0,0.3-0.2,0.3-0.4
			c-0.1-0.4-0.2-0.7-0.2-1.1c-0.1-0.2-0.1-0.5-0.2-0.7c0-0.1,0-0.2,0.1-0.3c0.1-0.1,0.3-0.3,0.4-0.4c0.1-0.1,0.2-0.1,0.4-0.1
			c0.2,0,0.4,0.1,0.7,0.1c0.9,0,1.8-0.1,2.7-0.4c0.1,0,0.2-0.1,0.3-0.1c0.2,0,0.3,0,0.3,0.2c0.1,0.3,0.4,0.6,0.7,0.7
			c0.3,0.2,0.4,0.4,0.4,0.7c0,0.4-0.1,0.8-0.3,1.1c-0.1,0.1-0.2,0.3-0.3,0.5c0,0.1-0.1,0.2-0.1,0.3c0.1,0.1,0.2,0.1,0.3,0.1
			c0.1,0,0.1,0,0.2,0c0.3,0.1,0.5-0.1,0.7-0.4c0.2-0.4,0.5-0.8,0.8-1.2c0.1-0.2,0.2-0.2,0.4-0.1c0.1,0.1,0.2,0.2,0.3,0.4
			c0.1,0.3,0.2,0.7,0.3,1c0.1,0.3,0.5,0.4,0.8,0.2C20.2,16.6,20.2,16.5,20.3,16.5z"/>
		<path class="st1" d="M3.7,9.7c0-2.3,0-4.5,0-6.8c0-0.1,0-0.1,0.1-0.1c5.5,0,10.9,0,16.4,0c0.1,0,0.1,0,0.1,0.1c0,4.4,0,8.8,0,13.2
			c-0.1,0-0.1-0.1-0.1-0.1c-0.1-0.5-0.2-1-0.2-1.5c0-0.4-0.2-0.6-0.5-0.9c-0.1-0.1-0.3-0.2-0.4-0.3C19,13.2,19,13.2,19,13.1
			c0.1-0.6,0.2-1.1,0.3-1.7c0,0,0-0.1,0.1-0.1c0.1,0,0.1,0.1,0.1,0.1c0.1,0.4,0.2,0.8,0.2,1.2c0,0,0,0.1,0,0.1
			c0,0.1,0.1,0.2,0.3,0.2c0.1,0,0.2-0.1,0.2-0.3c0-0.2-0.1-0.4-0.1-0.7c-0.1-0.6-0.3-1.2-0.5-1.7c-0.2-0.6-0.6-1-1-1.5
			c-0.1-0.1-0.3-0.2-0.4-0.2c-0.2-0.1-0.4-0.2-0.7-0.2c-1-0.2-1.9-0.5-2.9-0.9c-0.2-0.1-0.4-0.1-0.6-0.2c-0.7-0.4-1.5-0.8-2.2-1.2
			c-0.4-0.2-0.8-0.4-1.3-0.5c-0.7-0.1-1.3,0-1.9,0.3C8.3,6,7.9,6.3,7.7,6.5c-0.3,0.3-0.7,0.7-1,1C6.6,7.6,6.6,7.7,6.5,7.7
			c-0.1,0-0.1-0.1-0.2-0.1C5.9,7.3,5.4,7.1,4.9,7.1c0,0-0.1,0-0.1,0c0.2,0.2,0.4,0.4,0.5,0.5C5.4,7.8,5.6,8,5.7,8.1
			c0.1,0.1,0.1,0.2,0.1,0.3C5.7,8.5,5.6,8.5,5.5,8.5c-0.4,0-0.8,0.1-1.1,0.3C4,9,3.9,9.3,3.8,9.6C3.7,9.6,3.8,9.7,3.7,9.7z"/>
		<path class="st2" d="M14,7.2c0.6,0.2,1.2,0.4,1.8,0.6c0.6,0.2,1.1,0.4,1.7,0.5c0.4,0.1,0.7,0.2,1,0.4c0.2,0.2,0.4,0.5,0.6,0.7
			c0.5,0.7,0.7,1.4,0.9,2.2c0.1,0.3,0.1,0.7,0.2,1c0,0.1-0.1,0.3-0.2,0.3c-0.2,0-0.3-0.1-0.3-0.3c-0.1-0.5-0.2-0.9-0.3-1.4
			c0,0,0,0,0,0c-0.1,0.3-0.1,0.6-0.2,0.9c0,0.2-0.1,0.5-0.1,0.7c-0.1,0.2,0.1,0.3,0.2,0.4c0.2,0.2,0.4,0.3,0.6,0.5
			C20,14,20,14.2,20,14.4c0.1,0.6,0.2,1.1,0.2,1.7c0,0,0,0,0,0c0,0.1,0,0.3,0,0.4c-0.2,0.2-0.5,0.3-0.8,0.1c-0.1,0-0.1-0.1-0.1-0.2
			c-0.1-0.4-0.2-0.7-0.3-1.1c-0.1-0.2-0.2-0.3-0.4-0.4c-0.1,0-0.1,0-0.1,0.1c-0.3,0.5-0.6,1-0.9,1.5c-0.1,0.2-0.3,0.3-0.5,0.3
			c-0.1,0-0.3,0-0.4,0c-0.2,0-0.3-0.1-0.2-0.3c0.2-0.3,0.4-0.6,0.6-1c0,0,0-0.1,0-0.1c0-0.3,0.1-0.7,0-1c0-0.2-0.2-0.2-0.4-0.3
			c-0.3-0.2-0.6-0.4-0.7-0.8c-0.1-0.1-0.2-0.1-0.3-0.1c-0.5,0.2-1,0.3-1.6,0.4c-0.2,0-0.5,0.1-0.7,0.1c-0.2,0-0.4,0-0.7,0
			c-0.3,0-0.5,0-0.7-0.1c-0.1,0-0.2,0-0.3,0.1c-0.1,0.1-0.2,0.3-0.4,0.4c-0.1,0.1-0.1,0.2-0.1,0.4c0.1,0.6,0.3,1.2,0.4,1.8
			c0.1,0.2-0.1,0.5-0.4,0.5c-0.2,0-0.4,0-0.6,0c-0.2,0-0.3-0.1-0.2-0.3c0.1-0.3,0.1-0.6-0.1-0.8c-0.1-0.1-0.2-0.3-0.2-0.4
			c-0.1,0-0.1,0.1-0.1,0.2c-0.1,0.3-0.2,0.7-0.3,1c0,0.2-0.1,0.3-0.4,0.3c-0.2,0-0.5,0-0.7,0c-0.2,0-0.3-0.2-0.2-0.3
			c0-0.1,0.1-0.1,0.1-0.2c0.2-0.2,0.2-0.4,0.2-0.7c0-0.3,0-0.6,0.1-0.9c0-0.1,0.1-0.2,0-0.3c0-0.1,0-0.1,0-0.2c0-0.5,0-1,0-1.5
			c0-0.5,0.1-0.9,0.2-1.3c0.2-0.6,0.4-1.3,0.6-1.9C9.8,9,10,8.9,10.3,8.9c0.5,0,0.9-0.1,1.3-0.3c0.2-0.1,0.2-0.1,0.2-0.3
			c0-0.1,0-0.1,0-0.2c0-0.3,0.1-0.5,0.4-0.5c0.5,0,0.9-0.1,1.4-0.2c0.1,0,0.2-0.1,0.4-0.1C13.9,7.2,14,7.2,14,7.2z"/>
		<path class="st3" d="M14,7.2c-0.6,0.3-1.3,0.4-1.9,0.5c-0.2,0-0.4,0.2-0.3,0.4c0.1,0.5,0.1,0.5-0.4,0.7C11,8.9,10.7,9,10.3,9
			C10,9,9.8,9.1,9.7,9.4c-0.2,0.6-0.4,1.2-0.6,1.9c-0.2,0.8-0.2,1.6-0.2,2.5c0,0.2,0,0.4,0,0.6c-0.3-0.2-0.6-0.4-0.8-0.7
			C8.1,13.5,8,13.4,8,13.3c-0.1-0.1-0.2-0.2-0.3-0.1c0,0-0.1,0.1-0.1,0.1c-0.2,0.1-0.3,0.1-0.4-0.1C7,13,6.9,12.7,6.8,12.5
			c0-0.1,0-0.1-0.1-0.1c-0.1,0-0.1,0-0.1,0.1c-0.1,0.1-0.2,0.3-0.3,0.4c-0.1,0-0.1,0-0.2,0c-0.6-0.1-1.2-0.3-1.8-0.5
			c-0.1,0-0.1,0-0.2-0.1C4.1,12.1,4,11.8,4,11.6c-0.1-0.3-0.2-0.6-0.3-0.9c0-0.1,0-0.1,0-0.2c0-0.3,0-0.5,0-0.8
			c0.1-0.2,0.1-0.4,0.2-0.5c0.2-0.4,0.6-0.5,1-0.6c0.2-0.1,0.5-0.1,0.8-0.1c0,0,0.1,0,0.1,0c0.1,0,0.1,0.1,0.1,0.1
			c0.1,0.2,0.1,0.3,0,0.5c0,0.2-0.1,0.3-0.1,0.5c-0.1,0.2,0,0.4,0.1,0.5c0.2,0.2,0.4,0.2,0.6,0C6.9,9.8,7.1,9.4,7,9
			C6.9,8.6,6.8,8.2,6.5,7.8c0,0-0.1-0.1,0-0.2c0.1,0,0.1-0.1,0.1-0.1C7,7.2,7.3,6.8,7.7,6.4c0.5-0.5,1.2-0.8,1.9-0.9
			c0.7-0.1,1.3,0.1,1.9,0.3C12.4,6.3,13.2,6.7,14,7.2C14,7.2,14,7.2,14,7.2z"/>
		<path class="st2" d="M4.1,12.4c0.7,0.2,1.4,0.3,2.1,0.5c0,0,0.1,0,0.1,0c-0.1,0.2-0.3,0.4-0.4,0.6c-0.1,0.1-0.2,0.2-0.3,0.2
			c-0.3,0-0.6,0-0.9,0c-0.3,0-0.4,0-0.5-0.4C4.2,13,4.2,12.7,4.1,12.4z"/>
		<path class="st4" d="M6.5,7.7c0,0,0,0.1,0,0.1C6.9,8.2,7,8.7,7,9.2c0,0.4-0.3,0.8-0.7,1c-0.2,0.1-0.4,0-0.5-0.1
			C6,10,6.1,9.9,6.2,9.8c0.1-0.2,0.2-0.4,0.2-0.6C6.2,8.2,5.8,7.5,5,7.2c-0.1,0-0.2-0.1-0.2-0.1C4.6,7,4.7,7,4.8,7
			c0.4,0,0.7,0.1,1.1,0.2C6.1,7.4,6.3,7.5,6.5,7.7z"/>
		<path class="st5" d="M4.7,7.1C5.4,7.3,6,7.7,6.2,8.4c0.1,0.3,0.2,0.7,0.1,1.1C6.3,9.7,6.1,10,5.9,10.1C5.7,9.9,5.6,9.8,5.7,9.6
			c0-0.2,0.1-0.3,0.1-0.5c0-0.2,0-0.4,0-0.5c0,0,0-0.1-0.1-0.1c0-0.2-0.1-0.3-0.2-0.4C5.3,7.7,5,7.5,4.7,7.1
			C4.8,7.2,4.7,7.2,4.7,7.1z"/>
		<path class="st6" d="M5.3,11.5c0,0,0,0.1,0,0.1c0,0.1-0.1,0.2-0.2,0.2c-0.1,0-0.2,0-0.3-0.1c-0.1-0.1-0.1-0.4,0-0.5
			C5,11.1,5,11.1,5.1,11.1C5.3,11.2,5.3,11.3,5.3,11.5C5.3,11.4,5.3,11.4,5.3,11.5C5.3,11.5,5.3,11.5,5.3,11.5z"/>
	</g>
</g>
<g>
	<path class="st0" d="M36,1.6c0.8,0,1.5,0.1,2.1,0.2c0.6,0.2,1.2,0.4,1.7,0.8c0.5,0.4,0.8,0.8,1.1,1.5c0.3,0.6,0.4,1.4,0.4,2.2
		c0,1-0.2,1.9-0.7,2.6c-0.5,0.7-1.2,1.2-2.1,1.5v0.1c1,0.1,1.9,0.6,2.5,1.3c0.6,0.7,0.9,1.7,0.9,3c0,0.7-0.1,1.4-0.3,2.1
		c-0.2,0.7-0.5,1.2-1,1.7s-1.1,0.9-1.8,1.2c-0.7,0.3-1.7,0.4-2.7,0.4h-6.3V1.6H36z M34.5,9.3c1,0,1.8-0.2,2.3-0.6
		c0.5-0.4,0.7-1,0.7-1.9c0-0.9-0.2-1.5-0.6-1.9c-0.4-0.4-1.1-0.5-2.1-0.5h-1.4v4.9H34.5z M34.9,17.5c0.9,0,1.6-0.2,2.2-0.6
		c0.6-0.4,0.8-1.1,0.8-2.2c0-0.5-0.1-1-0.2-1.3c-0.1-0.4-0.3-0.6-0.6-0.9s-0.6-0.4-0.9-0.5s-0.7-0.1-1.1-0.1h-1.6v5.6H34.9z"/>
	<path class="st0" d="M44.3,1.6h3.7v18.6h-3.7V1.6z"/>
	<path class="st0" d="M53.9,15c0,0.4,0,0.8,0.1,1.2c0.1,0.4,0.2,0.7,0.4,0.9c0.2,0.2,0.4,0.4,0.8,0.6c0.3,0.1,0.7,0.2,1.2,0.2
		c0.6,0,1.1-0.2,1.5-0.6c0.5-0.4,0.7-0.9,0.7-1.7c0-0.4-0.1-0.8-0.2-1.1c-0.1-0.3-0.3-0.6-0.6-0.8c-0.3-0.2-0.6-0.5-1-0.7
		c-0.4-0.2-0.9-0.4-1.6-0.6c-0.8-0.3-1.6-0.6-2.2-0.9c-0.6-0.3-1.1-0.7-1.5-1.2c-0.4-0.4-0.7-1-0.9-1.5c-0.2-0.6-0.3-1.3-0.3-2
		c0-1.8,0.5-3.2,1.5-4.1c1-0.9,2.4-1.4,4.2-1.4c0.8,0,1.6,0.1,2.3,0.3c0.7,0.2,1.3,0.5,1.8,0.9c0.5,0.4,0.9,0.9,1.2,1.6
		s0.4,1.4,0.4,2.3v0.5h-3.6c0-0.9-0.2-1.6-0.5-2C57.5,4.3,57,4,56.3,4c-0.4,0-0.8,0.1-1,0.2c-0.3,0.1-0.5,0.3-0.7,0.5
		c-0.2,0.2-0.3,0.4-0.3,0.7c-0.1,0.3-0.1,0.5-0.1,0.8c0,0.6,0.1,1.1,0.4,1.4c0.2,0.4,0.8,0.7,1.6,1.1L59,10c0.7,0.3,1.3,0.6,1.7,1
		s0.8,0.7,1.1,1.1c0.3,0.4,0.5,0.8,0.6,1.3c0.1,0.5,0.2,1,0.2,1.6c0,2-0.6,3.4-1.7,4.3c-1.1,0.9-2.7,1.3-4.7,1.3
		c-2.1,0-3.6-0.5-4.5-1.4s-1.4-2.2-1.4-4v-0.8h3.7V15z"/>
	<path class="st0" d="M64.2,7C64.3,5.9,64.6,4.8,65,4c0.4-0.8,1.1-1.5,1.9-2c0.8-0.5,2-0.7,3.4-0.7c1.4,0,2.5,0.2,3.4,0.7
		c0.8,0.5,1.5,1.1,1.9,2C76,4.8,76.3,5.9,76.4,7c0.1,1.2,0.2,2.5,0.2,3.9c0,1.4-0.1,2.7-0.2,3.9c-0.1,1.2-0.4,2.2-0.9,3
		c-0.4,0.8-1.1,1.5-1.9,2c-0.8,0.5-2,0.7-3.4,0.7c-1.4,0-2.5-0.2-3.4-0.7c-0.8-0.5-1.5-1.1-1.9-2s-0.7-1.9-0.9-3S64,12.4,64,10.9
		C64,9.5,64,8.2,64.2,7z M67.8,14.1c0.1,0.9,0.2,1.6,0.4,2.1s0.4,0.9,0.8,1.2c0.3,0.3,0.8,0.4,1.3,0.4s1-0.1,1.3-0.4
		c0.3-0.3,0.6-0.7,0.8-1.2c0.2-0.5,0.3-1.3,0.4-2.1s0.1-1.9,0.1-3.2c0-1.2,0-2.3-0.1-3.2c-0.1-0.9-0.2-1.6-0.4-2.1
		c-0.2-0.6-0.4-1-0.8-1.2C71.3,4.2,70.9,4,70.3,4s-1,0.1-1.3,0.4c-0.3,0.3-0.6,0.7-0.8,1.2s-0.3,1.3-0.4,2.1
		c-0.1,0.9-0.1,1.9-0.1,3.2C67.7,12.2,67.8,13.2,67.8,14.1z"/>
	<path class="st0" d="M87.7,14.4L87.7,14.4l0.1-12.7h3.4v18.6h-4.3l-4.6-13h-0.1v13h-3.4V1.6h4.3L87.7,14.4z"/>
	<path class="st0" d="M97,17.3c0.3,0.6,0.8,0.8,1.6,0.8c0.5,0,0.8-0.1,1.1-0.2c0.3-0.2,0.5-0.4,0.6-0.6c0.1-0.3,0.2-0.6,0.3-0.9
		c0-0.4,0.1-0.7,0.1-1.1c0-0.4,0-0.8-0.1-1.2c-0.1-0.4-0.2-0.7-0.4-1c-0.2-0.3-0.4-0.5-0.7-0.7c-0.3-0.2-0.7-0.3-1.2-0.3H97V9.6h1.2
		c0.4,0,0.7-0.1,1-0.2c0.3-0.2,0.5-0.4,0.6-0.6s0.3-0.6,0.4-0.9c0.1-0.3,0.1-0.7,0.1-1.1c0-0.9-0.1-1.5-0.4-1.9
		c-0.3-0.4-0.7-0.5-1.4-0.5c-0.4,0-0.7,0.1-1,0.2c-0.3,0.1-0.4,0.4-0.6,0.6c-0.1,0.3-0.2,0.6-0.3,0.9c0,0.4-0.1,0.8-0.1,1.2h-3.4
		c0-1.8,0.5-3.2,1.4-4.1c0.9-0.9,2.3-1.3,4-1.3c1.7,0,3,0.4,3.9,1.1c0.9,0.8,1.4,2,1.4,3.6c0,1.1-0.2,2-0.7,2.7s-1.2,1.1-2.1,1.3
		v0.1c1.2,0.2,2,0.7,2.5,1.4c0.5,0.8,0.7,1.7,0.7,2.9c0,0.6-0.1,1.3-0.2,1.9c-0.2,0.7-0.5,1.3-0.9,1.8c-0.5,0.5-1.1,1-1.9,1.3
		c-0.8,0.3-1.8,0.5-3.1,0.5c-1.8,0-3.1-0.5-4-1.5c-0.9-1-1.3-2.3-1.3-4.1v-0.1h3.6C96.6,15.9,96.7,16.7,97,17.3z"/>
	<path class="st0" d="M112.6,4.8c-0.3-0.4-0.7-0.6-1.3-0.6c-0.5,0-0.9,0.1-1.2,0.4c-0.3,0.2-0.5,0.6-0.7,1s-0.3,0.9-0.3,1.5
		c-0.1,0.6-0.1,1.2-0.1,1.9v0.9h0.1c0.3-0.5,0.8-0.9,1.3-1.2c0.6-0.3,1.3-0.4,2.1-0.4c0.8,0,1.5,0.1,2.1,0.4c0.6,0.3,1,0.7,1.4,1.2
		s0.6,1.1,0.8,1.8c0.2,0.7,0.2,1.5,0.2,2.3c0,2.1-0.5,3.7-1.4,4.8c-0.9,1.1-2.5,1.7-4.5,1.7c-1.3,0-2.3-0.2-3.1-0.7
		c-0.8-0.5-1.3-1.1-1.8-1.9c-0.4-0.8-0.7-1.7-0.8-2.7s-0.2-2.1-0.2-3.3c0-1.3,0-2.6,0.1-3.8c0.1-1.2,0.3-2.3,0.7-3.3
		c0.4-0.9,1-1.7,1.8-2.3c0.8-0.6,2-0.9,3.5-0.9c0.7,0,1.3,0.1,1.9,0.2c0.6,0.2,1.2,0.4,1.6,0.8c0.5,0.4,0.8,0.8,1.1,1.4
		c0.3,0.6,0.4,1.3,0.5,2.2H113C113,5.8,112.9,5.2,112.6,4.8z M109.3,15.9c0.1,0.5,0.2,0.8,0.3,1.2c0.1,0.3,0.4,0.6,0.6,0.8
		c0.3,0.2,0.6,0.3,1.1,0.3c0.5,0,0.8-0.1,1.1-0.3c0.3-0.2,0.5-0.4,0.6-0.8s0.2-0.7,0.3-1.2c0-0.4,0.1-0.9,0.1-1.4
		c0-1.2-0.2-2.1-0.5-2.7c-0.3-0.5-0.8-0.8-1.6-0.8c-0.7,0-1.3,0.3-1.6,0.8c-0.3,0.5-0.5,1.4-0.5,2.7C109.2,15,109.2,15.5,109.3,15.9
		z"/>
	<path class="st0" d="M118,7.9c0.1-1.2,0.3-2.2,0.7-3.1c0.4-0.9,1-1.6,1.7-2.2c0.8-0.5,1.8-0.8,3.2-0.8c1.1,0,2.1,0.2,2.8,0.5
		c0.7,0.3,1.3,0.8,1.8,1.5c0.4,0.7,0.8,1.6,0.9,2.8c0.2,1.1,0.3,2.5,0.3,4.1c0,1.3,0,2.5-0.1,3.7c-0.1,1.2-0.3,2.2-0.7,3.1
		c-0.4,0.9-1,1.6-1.7,2.1c-0.8,0.5-1.8,0.8-3.2,0.8c-1.1,0-2-0.1-2.8-0.4c-0.7-0.3-1.3-0.8-1.8-1.5c-0.4-0.7-0.8-1.6-0.9-2.8
		c-0.2-1.1-0.3-2.5-0.3-4.1C117.9,10.3,117.9,9.1,118,7.9z M121.7,15.3c0.1,0.7,0.2,1.3,0.3,1.7s0.4,0.7,0.6,0.9
		c0.3,0.2,0.6,0.2,1,0.2c0.4,0,0.8-0.1,1-0.3s0.5-0.5,0.6-1c0.1-0.5,0.3-1.1,0.3-1.9s0.1-1.8,0.1-3v-2c0-1.2,0-2.1-0.1-2.8
		c-0.1-0.7-0.2-1.3-0.3-1.7c-0.2-0.4-0.4-0.7-0.6-0.9c-0.3-0.2-0.6-0.2-1-0.2c-0.4,0-0.8,0.1-1,0.3c-0.3,0.2-0.5,0.5-0.6,1
		c-0.1,0.5-0.3,1.1-0.3,1.9c-0.1,0.8-0.1,1.8-0.1,3v2C121.6,13.6,121.7,14.5,121.7,15.3z"/>
</g>
</svg>
