<?xml version="1.0" encoding="utf-8"?>
<!-- Generator: Adobe Illustrator 24.0.1, SVG Export Plug-In . SVG Version: 6.00 Build 0)  -->
<svg version="1.1" id="Layer_1" xmlns="http://www.w3.org/2000/svg" xmlns:xlink="http://www.w3.org/1999/xlink" x="0px" y="0px"
	 viewBox="0 0 1080 1080" style="enable-background:new 0 0 1080 1080;" xml:space="preserve">
<style type="text/css">
	.st0{fill:#FFFFFF;}
	.st1{fill:#FEFEFE;}
	.st2{fill:#B7593E;}
	.st3{fill:#511E17;}
	.st4{fill:#FBE0BD;}
	.st5{fill:#FEEED1;}
	.st6{fill:#796C77;}
</style>
<g>
	<path class="st0" d="M896.9,1072.7h-710c-98.7,0-178.6-80-178.6-178.6V184c0-98.7,80-178.6,178.6-178.6h710
		c98.7,0,178.6,80,178.6,178.6v710C1075.5,992.7,995.6,1072.7,896.9,1072.7z"/>
	<g>
		<path class="st1" d="M954.3,809.3c0,46-0.1,92,0.1,138c0,4.8-1,5.8-5.8,5.8c-271.7-0.1-543.4-0.2-815.1,0c-5.9,0-5.7-2.3-5.7-6.6
			c0.1-145.8,0.1-291.6,0.1-437.3c3.5,0,3.5,2.9,4,5.1c7,28.8,17.5,56.8,20.6,86.5c2.5,15.9,5,31.8,8,47.6
			c2.2,11.5,6.4,15,18.1,15.1c14.5,0.2,29-0.1,43.4,0.1c7.5,0.1,12.8-2.9,16.7-9.1c6-9.5,12.8-18.5,19.2-27.8
			c4.2-6.2,8.3-12.5,12.6-18.7c2.5-3.6,4.2-8.8,10-8c5.9,0.8,5.9,6.3,7.1,10.5c3.1,11,8,21.1,14.9,30.2c5.5,7.3,9.9,8.2,18,3.8
			c2.4-1.3,4.5-3,7.1-3.8c5.8-1.8,11.1-0.9,13.9,4.7c10.1,19.7,25.1,34.6,43.3,46.8c1.8,1.2,3.3,2.7,4.2,4.8c2.2,7.6-0.4,15-1,22.4
			c-1.3,17.9-2.7,35.9-4.8,53.8c-1.1,9.2-7.2,16.1-11.5,23.8c-2.7,4.8-7.7,9.2-4.3,15.4c3.4,6.1,9.8,4.4,15.3,4.5
			c8.6,0.2,17.2,0.1,25.8,0c11-0.1,15.6-3.4,18.8-14c5.3-17.5,10.2-35.1,15.6-52.6c0.6-2.1,1.1-4.2,2.2-6.1c2.1-3.5,5.1-4.8,7.4-0.9
			c7.3,12.2,15,24.2,20.1,37.6c1.3,3.4,0.6,6.9-0.4,10.3c-1.4,4.9-3.1,9.8-4,14.8c-1.1,6.2,1.6,10.3,7.9,10.6
			c11.5,0.6,23.2,0.9,34.7-0.1c9.9-0.9,15.1-10,12.7-21.3c-3.9-18.1-8-36.2-11.9-54.4c-2.6-12.4-5.3-24.7-8.3-37
			c-1.5-6.2,0.1-10.9,4.6-15.3c6.9-6.7,13.9-13.5,20.4-20.7c4.8-5.3,10.9-6.3,17.7-5.4c10.9,1.3,21.8,2.7,32.9,2.8
			c46.1,0.4,91-7.1,135.3-19.4c5.2-1.4,10.3-3.2,15.6-4.2c8.8-1.7,13,0.3,16.7,8.6c7.5,16.2,20.5,27.4,35.7,34.9
			c15.7,7.8,19.8,19,20,35.6c0.2,20.4-2.8,38.7-15.9,55c-5.8,7.3-10.6,15.6-15.2,23.8c-2.3,4.1-6,8.2-2.9,13.4c3,5,8.4,3.9,13.1,4.1
			c2.7,0.1,5.4-0.3,8.1,0.1c16.1,2.6,26-4.8,33.8-18.5c12.1-21.2,26.3-41.3,39.5-61.9c6.5-10.2,8.3-10.4,18.6-4.1
			c7.3,4.4,11.7,10.8,14.1,18.9c4.8,16.5,9.3,33.1,14.7,49.5c5.4,16.5,23.7,22,38.2,11.8C950.1,811.2,951.4,808.7,954.3,809.3z"/>
		<path class="st1" d="M128,470.4c0-112.4,0-224.8-0.1-337.1c0-5.2,0.6-6.8,6.4-6.8c271.3,0.2,542.6,0.2,813.9,0
			c6.1,0,6.3,2,6.3,6.9c-0.1,218.3-0.1,436.6-0.1,654.9c-4.4-0.5-3.4-4.2-3.8-6.8c-4-24.4-8.3-48.8-10.6-73.4
			c-1.7-18.8-10.5-32.2-24.7-43.3c-6.8-5.3-13.1-11.1-19.6-16.8c-3.8-3.3-5.5-7-4.8-12c3.9-27.7,9.5-55.1,14.8-82.6
			c0.4-2.1,0.9-4.7,3.7-4.4c3,0.3,3.2,3.3,3.8,5.5c5.1,19.3,9.2,38.7,12.4,58.4c0.3,1.9,0.5,3.7,1,5.6c1.9,7.3,7.2,11.5,13.1,10.4
			c5.9-1.1,9.6-6.9,8.5-14.3c-1.5-10.9-3.5-21.8-5.6-32.6c-5.8-29-12.6-57.9-23.9-85.3c-11.4-27.6-28.9-51.5-49.2-73.2
			c-5.4-5.8-12.7-9-20-11.8c-10.5-4.1-21.3-7.9-32.4-9.9c-49.5-9.1-96.2-27-143.1-44.3c-9.8-3.6-19.7-7.1-29.3-11.4
			C608,325.5,570.8,306.1,533,288c-20.3-9.7-40.7-19.7-63.3-23.5c-33.1-5.5-64.7,0-95,13.8c-18,8.2-33.8,19.7-47.7,33.8
			c-16.6,16.9-33.4,33.5-50.2,50.2c-2.8,2.8-5.4,6.2-10,6c-3-0.5-5.3-2.5-7.5-4.4c-20.9-16.7-45.5-22.8-71.4-25.2
			c-1.9-0.2-5-1.6-5.8,2c7.9,9.9,17.5,18,26.2,27.1c7.3,7.5,14,15.5,20.1,24c2.7,3.8,5.9,7.9,3.2,13.2c-4,3.9-9.1,4.1-14.2,4.5
			c-20,1.6-39,6.6-56.5,16.9c-14.6,8.6-23.7,21.3-28.7,37.3C131.4,466.3,132.3,470.1,128,470.4z"/>
		<path class="st2" d="M644.6,344.5c29.1,10.6,58.1,21.3,87.3,31.7c27.5,9.8,55.5,17.7,84.1,23.4c18.3,3.7,37,8,51.8,20.1
			c11.9,9.7,20.6,22.7,29.7,35.1c24.5,33.3,34.9,72.1,43.8,111.5c3.6,16.1,6.4,32.5,9.6,48.7c1.3,6.5-4,15.4-10.3,16.7
			c-7.9,1.7-15.8-4.6-16.9-13.9c-2.7-22.8-8.7-44.9-13.5-67.3c-0.1-0.3-0.8-0.5-1.8-1c-3,15.8-6.1,31.3-9,46.9
			c-2.2,11.6-3.3,23.5-6.6,34.9c-3.1,10.7,3.8,15.6,10,20.5c10.2,8.2,20,16.8,29.1,26.2c6.8,7.1,8,16.5,9.3,25.5
			c4.1,27.9,7.8,55.9,11.8,83.9c0,0.3,0.8,0.6,1.2,0.9c0,7,0,14,0,21c-8.1,10.5-27.2,13.6-38.7,6.5c-3.9-2.4-5.1-6.2-6.2-9.8
			c-5.7-18-11.5-36.1-16.1-54.4c-2.9-11.5-11.3-16.6-20.3-21.6c-3.8-2.1-4.4,1.5-5.7,3.4c-15.7,24.1-31.7,48-46.6,72.6
			c-5.9,9.6-13,13.9-24,13.1c-7.2-0.5-14.5,0.1-21.8-0.2c-9.2-0.3-13.6-7.3-8.9-15.2c9.7-16.3,20-32.2,30.1-48.2
			c0.9-1.4,1.7-2.6,1.9-4.3c2.4-16.7,2.7-33.4-0.2-50c-1.6-9.5-11.5-10.2-17.8-14.3c-15.5-10.2-29.8-21.2-37.1-39.2
			c-2.8-6.8-9.1-5.6-13.7-4c-25.6,8.3-51.8,13.9-78.2,18.4c-11.4,1.9-23.1,3.1-34.8,3.9c-11.2,0.8-22.4,1.2-33.6,1.3
			c-12.5,0.2-24.9-1-37.3-3.1c-6.4-1.1-12,0.2-16.6,6.2c-5,6.6-11.1,12.6-17.6,17.7c-6.5,5.1-7.1,10.7-5.4,17.9
			c7,29.9,13.8,59.9,20.6,89.8c2.8,12.4-5.5,23.1-18.1,23.1c-10.5,0-21,0-31.5,0c-8.7,0-14.2-6.4-10.6-14c7-15.2,5.4-28.6-4.3-42
			c-4.8-6.6-8.1-14.2-12.1-21.5c-4.6,2.2-3.7,6.9-4.7,10.4c-5.3,17.3-10,34.9-15.3,52.2c-2.4,7.8-6.9,15.9-19.5,15.1
			c-11.5-0.7-23.1,0-34.7-0.2c-10.6-0.1-15.1-8.5-9.6-17.4c1.8-2.9,3.7-5.8,5.8-8.4c7.7-9.7,10.2-21.2,11.2-33.2
			c1.3-15.4,2.3-30.7,3.2-46.1c0.3-5.8,2.9-11.4,1.6-17.4c-2.1-3.3-2.2-7.1-2.2-10.9c0-25-0.4-50,0.1-75
			c0.5-22.4,5.6-44.2,11.5-65.7c8.7-32.2,19.6-63.7,31.5-94.8c5.1-13.5,13-18.6,27.7-19c22.5-0.7,44.3-4.7,65-13.9
			c9.1-4,10.3-6.3,8.8-16.3c-0.6-3.7-1.3-7.4-1.8-11.1c-1.9-13.6,6.2-24,20-24.7c23.2-1.1,45.8-5.7,68.1-12.1
			c6.2-1.8,12-4.8,18.1-6.9C637.7,344.9,641,343.7,644.6,344.5z"/>
		<path class="st3" d="M644.6,344.5c-30.8,13.8-63.1,21.3-96.9,22.8c-11.9,0.5-19.4,10.5-17.1,22.3c5,25.6,5,25.6-19.7,34.2
			c-17.4,6.1-35.2,9.1-53.6,9.3c-15.3,0.2-21.8,4.9-27.1,19.1c-11.4,30.7-21.5,61.8-30.9,93.1c-12.1,40.3-12,81.5-11.5,122.8
			c0.1,9.4,0,18.8,0,28.2c-14.1-9.4-27.6-19.6-37.5-33.6c-3.3-4.7-6.4-9.6-9.1-14.6c-4-7.3-8.8-8.9-15.9-4.5
			c-1.8,1.1-3.4,2.5-5.2,3.5c-7.6,4.1-13.6,2.9-18.6-4.1c-8-11.1-13.9-23.2-16.8-36.6c-0.6-2.6-0.8-4.6-3.7-5.4
			c-3.5-0.9-4.5,1.8-5.9,3.9c-5,7.4-10,14.8-15,22.2c-3.2,2.2-6.6,1.7-10.1,0.8c-30.5-7.4-60.9-15.6-91.6-22.5
			c-2.9-0.7-5.7-1.6-7.6-4.2c-2.5-13-4.8-26-7.7-39c-3.4-15.4-10.3-29.8-13.2-45.3c-0.5-2.5,1.6-6-2-7.8c0-12.9,0-25.8,0-38.7
			c2.9-9.3,5.7-18.6,11.4-26.7c12.2-17.6,30.4-25.5,50-31.5c12.4-3.8,25.3-3.8,37.8-6.3c1.7-0.4,2.8-1.4,4.1-2.2
			c4.7-1.1,5.2,2.8,6.2,5.6c2.8,8,3.1,16.3,1.6,24.6c-1.6,8.7-4.1,17.2-6.8,25.6c-3.3,10.3-1.2,19,6.3,26.5
			c9.8,7.9,19.8,8.1,30.5,1.7c18.7-11.2,28-31.4,24.1-54.5c-3.6-21.1-10.7-40.9-24.6-57.7c-1.9-2.3-4.7-4.8-1.2-8.1
			c3.2-0.5,4.7-3.4,6.8-5.4c18.5-18.4,36.6-37.1,55.4-55.2c26.2-25.4,57.8-39.5,93.9-45c34-5.1,65,3,95.5,17.2
			c42.2,19.7,83.4,41.1,124.1,63.7C643.6,343.3,644,344,644.6,344.5z"/>
		<path class="st2" d="M150.8,601.2c34,8.5,68,16.9,102.1,25.3c2.3,0.6,4.8,0.4,7.1,0.6c-6.9,10.2-13.9,20.5-20.8,30.7
			c-3.5,5.2-7.9,8.1-14.6,8c-14.5-0.3-29-0.1-43.5-0.1c-16.8,0-19.2-1.8-22.8-18.6C155.1,631.9,152.4,616.6,150.8,601.2z"/>
		<path class="st4" d="M267.3,367.6c-0.2,2.3,0.8,3.9,2.2,5.7c17.5,21.1,26.5,45.5,26.5,72.9c0,21.5-13,39.8-33.2,47.5
			c-9.3,3.6-17.8,1.7-24.9-5.6c4.7-5.5,10.6-9.8,14.3-16.1c5.5-9.5,8.6-19.8,7.5-30.8c-4.9-47.5-25.4-80.1-67.7-94.4
			c-4.3-1.5-8.6-3-12.4-5.5c-3.9-6,1.4-4.9,4-4.7c18.7,1,36.9,4.3,54.2,12C248.7,353.4,258,360.4,267.3,367.6z"/>
		<path class="st5" d="M179.6,341.3c36,8.1,62,27.9,74.3,63.8c5.9,17.4,11.4,34.8,6.2,53.3c-3.5,12.5-9.1,24-22.1,29.7
			c-8.1-7-12-15.3-8.8-26.1c2.5-8.4,4.9-16.9,7-25.4c2.2-9,1.8-18-0.8-26.9c-0.7-2.3-0.4-5.7-4.1-6c-0.9-8.6-7.1-14.1-12-20.4
			c-10.8-13.7-24.1-25.2-36.1-37.8C181.9,344.3,180.8,342.7,179.6,341.3z"/>
		<path class="st6" d="M210.3,557c0,2.1,0.2,4.3,0,6.4c-0.4,4.8-3.5,7.9-7.5,9.6c-4.9,2.1-9.5,0.7-13.1-3.2
			c-4.4-4.8-4.8-18.1-0.8-24.3c2.9-4.7,7.5-6.2,12.4-4.9c6.3,1.7,9.7,6.3,9.2,13.2c-0.1,1.1,0,2.1,0,3.2
			C210.4,557,210.4,557,210.3,557z"/>
	</g>
</g>
</svg>
